<svg xmlns="http://www.w3.org/2000/svg" viewBox="0 0 4228 2625">
  <path fill="#E9C6AF" fill-rule="evenodd" d="M0 2625h4227V0H0Zm0 0"/>
  <path fill="#F4E3D7" d="m197 0-65 48c-3 2-5 5-6 8v1c-2 3-3 7-2 10l12 80-80-12c-3-1-7 0-10 2h-1c-3 1-6 3-8 6L0 193v88c31 28 67 51 106 68-25 48-62 90-106 122v101a304 304 0 0 0 146 134A310 310 0 0 0 0 841v101c44 32 81 74 106 122-39 16-75 40-106 68v88l37 50c2 3 5 5 8 6h1c3 2 7 2 10 2l80-13-12 80c-1 4 0 8 2 11 1 4 3 7 6 9l65 48-65 48a17 17 0 0 0-6 8v1c-2 3-3 7-2 10l12 80-80-12c-3-1-7 0-10 1l-1 1c-3 1-6 3-8 6l-37 50v87c31 29 67 52 106 69-25 48-62 90-106 121v102a304 304 0 0 0 146 134A310 310 0 0 0 0 2254v101c44 32 81 74 106 121-39 17-75 41-106 69v80h46c-11-16-21-31-33-45 31-30 68-55 107-72 15 37 23 77 25 117h35c-2-44-11-88-27-129a356 356 0 0 1 174-9c9 45 9 93 0 138h36c8-43 8-87 1-131 61 10 123 5 182-13 29 57 73 108 127 144h44c54-36 98-87 128-144 58 18 121 23 181 13-7 44-6 88 2 131h35c-9-45-9-93 0-138a351 351 0 0 1 174 9c-16 41-25 85-26 129h35c1-40 9-80 24-117 40 17 77 42 108 72-12 14-23 29-33 45h51l6-8 5 8h51c-10-16-20-31-33-45 32-30 68-55 108-72 15 37 23 77 25 117h35c-2-44-11-88-27-129a356 356 0 0 1 174-9c9 45 9 93 0 138h36c7-43 8-87 1-131 60 10 123 5 181-13 30 57 74 108 128 144h44c54-36 98-87 128-144 58 18 121 23 181 13-7 44-6 88 1 131h36c-9-45-9-93 0-138a351 351 0 0 1 174 9c-16 41-25 85-26 129h34c2-40 10-80 25-117 40 17 76 42 108 72-12 14-23 29-33 45h51l5-8 6 8h51c-10-16-21-31-33-45 31-30 68-55 108-72 15 37 23 77 25 117h34c-1-44-10-88-26-129a356 356 0 0 1 174-9c9 45 9 93 0 138h35c8-43 9-87 2-131 60 10 123 5 181-13 30 57 74 108 128 144h44c54-36 98-87 128-144 58 18 120 23 181 13-7 44-6 88 1 131h36c-9-45-9-93 0-138a352 352 0 0 1 174 9c-16 41-25 85-27 129h35c2-40 10-80 25-117 40 17 76 42 107 72-12 14-22 29-32 45h50l6-8v-62c-34-33-73-60-117-79 28-51 68-96 117-129v-71a310 310 0 0 0-157-157 310 310 0 0 0 157-156v-72c-49-32-89-77-117-129 44-19 83-46 117-79v-62l-48-65c-2-3-5-5-8-6v-1h-1c-3-1-7-2-10-1l-80 12 12-80c1-4 0-7-1-11l-7-8-65-48 65-48c3-2 5-5 7-9 1-3 2-7 1-11l-12-80 80 13a17 17 0 0 0 11-2c3-1 6-3 8-6l48-66v-62c-34-33-73-60-117-78 28-52 68-97 117-130v-71a310 310 0 0 0-157-157 310 310 0 0 0 157-156v-71c-49-33-89-78-117-130 44-19 83-45 117-78v-63l-48-65a17 17 0 0 0-8-6h-1c-3-2-7-3-10-2l-80 12 12-80c1-3 0-7-1-10-2-4-4-7-7-9l-65-48h-63c-32 34-59 73-78 117-52-27-97-68-129-117h-71a310 310 0 0 0-157 157A310 310 0 0 0 3364 0h-71c-33 49-78 90-129 117-19-44-46-83-79-117h-62l-66 48-6 8v1c-2 3-2 7-2 10l13 80-80-12a17 17 0 0 0-11 2c-4 1-7 3-9 6l-48 65-47-65a17 17 0 0 0-9-6c-4-2-7-3-11-2l-80 12 13-80-2-10c-1-4-4-7-7-9l-65-48h-62c-33 34-60 73-79 117-52-27-96-68-129-117h-71a310 310 0 0 0-157 157A310 310 0 0 0 1951 0h-71c-32 49-77 90-129 117-19-44-46-83-79-117h-62l-65 48c-3 2-5 5-7 9-1 3-2 7-1 10l12 80-80-12a17 17 0 0 0-11 2l-9 6-47 66-48-66a18 18 0 0 0-9-6c-3-2-7-3-11-2l-80 12 13-80c0-3 0-7-2-10-1-4-3-7-6-9l-66-48h-62c-33 34-60 73-78 117-52-27-97-68-130-117h-71a310 310 0 0 0-157 157A310 310 0 0 0 538 0h-71c-32 49-77 90-129 117-19-44-45-83-78-117Zm299 21a277 277 0 0 1 179 178c-55 37-100 88-129 146a389 389 0 0 0-182-14c10-60 5-123-14-181 59-30 109-75 146-129Zm399 0c37 54 87 99 145 129-19 58-23 121-14 181a387 387 0 0 0-181 14c-30-58-75-109-129-146A276 276 0 0 1 895 21Zm1013 0a277 277 0 0 1 180 178c-55 37-100 88-130 146a389 389 0 0 0-181-14c10-60 5-123-14-181 58-30 109-75 145-129Zm400 0c36 54 87 99 145 129-19 58-24 121-14 181a387 387 0 0 0-181 14c-30-58-75-109-130-146a276 276 0 0 1 180-178Zm1013 0a277 277 0 0 1 179 178c-54 37-99 88-129 146a389 389 0 0 0-181-14c9-60 5-123-14-181 58-30 109-75 145-129Zm400 0c36 54 87 99 145 129-19 58-24 121-14 181a387 387 0 0 0-181 14c-30-58-75-109-130-146a276 276 0 0 1 180-178ZM234 24c31 31 55 68 72 108-40 16-83 24-127 25-2-29-7-57-15-85 25-13 49-30 70-48Zm922 0c22 18 46 35 71 48-8 28-14 56-16 85-43-1-87-9-127-25 17-40 42-77 72-108Zm491 0c30 31 55 68 72 108-40 16-83 24-127 25-2-29-7-57-16-85 26-13 49-30 71-48Zm1413 0c30 31 55 68 72 108-40 16-84 24-127 25-2-29-8-57-16-85 25-13 49-30 71-48Zm922 0c21 18 45 35 71 48-9 28-14 56-16 85-44-1-87-9-127-25 17-40 41-77 72-108Zm-1413 0c22 18 45 35 71 48-9 28-14 56-16 85-43-1-87-9-127-25 17-40 42-77 72-108ZM1072 164c44 18 91 27 138 27 1 48 10 95 27 138-56 18-116 21-174 9-11-57-8-118 9-174Zm2072 0c17 56 20 117 9 174-58 12-118 9-174-9 17-43 26-90 27-138 47 0 94-9 138-27Zm-2826 0c18 56 21 117 9 174-57 12-118 9-174-9 18-43 27-90 27-138 47 0 94-9 138-27Zm1413 0c17 56 21 117 9 174-58 12-118 9-174-9 17-43 26-90 27-138 47 0 94-9 138-27Zm754 0c44 18 91 27 138 27 1 48 10 95 27 138-56 18-116 21-174 9-11-57-8-118 9-174Zm1413 0c44 18 91 27 138 27 0 48 10 95 27 138-56 18-117 21-174 9-12-57-9-118 9-174Zm-2569 11c14 25 30 49 49 70-31 31-68 55-108 72-16-40-24-83-25-127 29-2 57-7 84-15Zm1413 0c14 25 30 49 49 70-32 31-68 55-108 72-16-40-25-83-25-127 28-2 57-7 84-15Zm145 0c27 8 56 13 84 15 0 44-9 87-25 127-40-17-77-41-108-72 19-21 35-45 49-70ZM61 175c28 8 56 13 85 15-1 44-9 87-26 127-39-17-76-41-107-72 18-21 35-45 48-70Zm1413 0c27 8 56 13 84 15 0 44-9 87-25 127-40-17-76-41-108-72 19-21 35-45 49-70Zm2681 0c13 25 30 49 48 70-31 31-67 55-107 72-16-40-25-83-26-127 29-2 57-7 85-15ZM695 228c49 32 90 77 117 129-43 19-83 46-117 79-33-33-73-60-117-79 28-52 68-97 117-129Zm1413 0c49 32 90 77 117 129-43 19-83 46-117 79-34-33-73-60-117-79 28-52 68-97 117-129Zm1413 0c49 32 89 77 117 129-44 19-83 46-117 79-34-33-74-60-117-79 27-52 68-97 117-129Zm-2119 43c33 33 73 59 117 78-28 52-68 97-117 130-49-33-90-78-117-130 43-19 83-45 117-78Zm1412 0c34 33 74 59 117 78-27 52-68 97-117 130-48-33-89-78-116-130 43-19 83-45 116-78ZM422 361c37 0 74 5 109 16-17 44-26 91-27 138-47 1-94 10-138 27-18-56-21-116-9-174 21-4 43-7 65-7Zm546 0c22 0 44 3 66 7 11 58 8 118-9 174-44-17-91-26-138-27-1-47-10-94-28-138 36-11 73-16 109-16Zm867 0c37 0 74 5 109 16-18 44-27 91-27 138-47 1-94 10-138 27-18-56-21-116-9-174 21-4 43-7 65-7Zm546 0c22 0 44 3 65 7 12 58 9 118-8 174-44-17-91-26-139-27 0-47-9-94-27-138 35-11 72-16 109-16Zm867 0c37 0 73 5 109 16-18 44-27 91-28 138-47 1-94 10-138 27-17-56-20-116-9-174 22-4 44-7 66-7Zm546 0c22 0 44 3 65 7 12 58 9 118-9 174-44-17-91-26-138-27 0-47-9-94-27-138 35-11 72-16 109-16Zm-3655 0c58 19 121 24 181 14-10 61-5 123 14 182-58 29-109 74-145 128A276 276 0 0 1 9 507c55-37 100-87 130-146Zm1113 0c30 59 75 109 129 146a276 276 0 0 1-179 178c-37-54-87-99-145-128 19-59 23-121 14-182 60 10 123 5 181-14Zm299 0c59 19 121 24 182 14-10 61-5 123 14 182-59 29-109 74-146 128a276 276 0 0 1-179-178c55-37 99-87 129-146Zm1114 0c30 59 75 109 129 146a276 276 0 0 1-179 178c-37-54-87-99-146-128 19-59 24-121 14-182 61 10 123 5 182-14Zm299 0c58 19 121 24 182 14-10 61-5 123 13 182-58 29-108 74-145 128a277 277 0 0 1-179-178c54-37 99-87 129-146Zm1113 0c30 59 75 109 130 146a276 276 0 0 1-179 178c-37-54-87-99-146-128 19-59 24-121 14-182 61 10 123 5 181-14ZM564 389c40 17 76 42 108 72-19 22-36 45-49 71-28-9-56-14-84-16 0-43 9-87 25-127Zm263 0c16 40 24 84 25 127-29 2-57 7-84 16-14-26-30-49-49-71 31-30 68-55 108-72Zm1150 0c39 17 76 42 107 72-18 22-35 45-48 71-28-9-56-14-85-16 1-43 9-87 26-127Zm263 0c16 40 24 84 25 127-29 2-57 7-85 16-13-26-29-49-48-71 31-30 68-55 108-72Zm1149 0c40 17 77 42 108 72-19 22-35 45-48 71-28-9-56-14-85-16 1-43 9-87 25-127Zm263 0c16 40 25 84 26 127-29 2-57 7-85 16-13-26-30-49-48-71 31-30 67-55 107-72ZM695 498l48 65c2 3 5 6 9 7 3 1 7 2 11 1l80-12-13 80c0 4 0 7 2 11l6 9 66 47-66 48c-3 2-5 5-6 9-2 3-2 7-2 11l13 80-80-13c-4 0-8 0-11 2-4 1-7 3-9 6l-48 66-47-66a17 17 0 0 0-9-6c-4-2-7-2-11-2l-80 13 12-80c1-4 0-8-1-11-2-4-4-7-7-9l-65-48 65-47 7-9c1-4 2-7 1-11l-12-80 80 12c4 1 7 0 11-1 3-1 6-4 9-7Zm1413 0 48 65c2 3 5 6 9 7 3 1 7 2 10 1l80-12-12 80c-1 4 0 7 2 11l6 9 66 47-66 48c-3 2-5 5-6 9-2 3-3 7-2 11l12 80-80-13c-3 0-7 0-10 2-4 1-7 3-9 6l-48 66-48-66c-2-3-5-5-8-6h-1c-3-2-7-2-10-2l-80 13 12-80c1-4 0-8-2-11-1-4-3-7-6-9l-65-48 65-47 6-9c2-4 3-7 2-11l-12-80 80 12c3 1 7 0 10-1h1l8-7Zm1413 0 48 65a17 17 0 0 0 8 7h1c3 1 7 2 10 1l80-12-12 80c-1 4 0 7 1 11h1l6 9 65 47-65 48c-3 2-5 5-6 9h-1c-1 3-2 7-1 11l12 80-80-13c-3 0-7 0-10 2h-1c-3 1-6 3-8 6l-48 66-48-66a17 17 0 0 0-9-6c-3-2-7-2-11-2l-80 13 13-80c0-4 0-8-2-11-1-4-3-7-6-9l-66-48 66-47 6-9c2-4 2-7 2-11l-13-80 80 12c4 1 8 0 11-1 4-2 7-4 9-7ZM505 550c2 28 7 57 16 84-26 14-49 30-71 49-30-32-55-68-72-108 40-16 83-25 127-25Zm381 0c43 0 87 9 127 25-17 40-42 76-72 108-22-19-46-35-71-49 8-27 14-56 16-84Zm1032 0c2 28 7 57 15 84-25 14-49 30-70 49-31-32-55-68-72-108 40-16 83-25 127-25Zm380 0c44 0 87 9 128 25-17 40-42 76-72 108-22-19-46-35-71-49 8-27 13-56 15-84Zm1032 0c3 28 8 57 16 84-25 14-49 30-71 49-30-32-55-68-72-108 41-16 84-25 127-25Zm381 0c44 0 87 9 127 25-17 40-41 76-72 108-21-19-45-35-71-49 9-27 14-56 16-84Zm-2309 0a310 310 0 0 0 157 156 310 310 0 0 0-157 157 309 309 0 0 0-157-157 310 310 0 0 0 157-156Zm1412 0a310 310 0 0 0 158 156 311 311 0 0 0-158 157 310 310 0 0 0-157-157 310 310 0 0 0 157-156ZM346 590c19 43 46 83 79 116-33 34-60 74-79 117-52-27-97-68-129-117 32-48 77-89 129-116Zm698 0c52 27 97 68 130 116-33 49-78 90-130 117-18-43-45-83-78-117 33-33 60-73 78-116Zm715 0c19 43 45 83 78 116-33 34-59 74-78 117-52-27-97-68-129-117 32-48 77-89 129-116Zm698 0c52 27 97 68 130 116-33 49-78 90-130 117-19-43-45-83-78-117 33-33 59-73 78-116Zm715 0c18 43 45 83 78 116-33 34-60 74-78 117-52-27-97-68-130-117 33-48 78-89 130-116Zm698 0c52 27 97 68 129 116-32 49-77 90-129 117-19-43-46-83-78-117 32-33 59-73 78-116ZM189 727c36 55 87 99 145 129-19 58-24 121-14 182a387 387 0 0 0-181 13C109 993 64 942 9 906a276 276 0 0 1 180-179Zm1013 0a276 276 0 0 1 179 179c-54 36-99 87-129 145a389 389 0 0 0-181-13c9-61 5-124-14-182 58-30 108-74 145-129Zm399 0c37 55 87 99 146 129-19 58-24 121-14 182a387 387 0 0 0-182 13c-29-58-74-109-129-145a276 276 0 0 1 179-179Zm1014 0a277 277 0 0 1 179 179c-55 36-99 87-129 145a389 389 0 0 0-182-13c10-61 5-124-14-182 59-30 109-74 146-129Zm399 0c37 55 87 99 145 129-18 58-23 121-13 182a387 387 0 0 0-182 13c-30-58-75-109-129-145a276 276 0 0 1 179-179Zm1013 0a277 277 0 0 1 180 179c-55 36-100 87-130 145a389 389 0 0 0-181-13c10-61 5-124-14-182 59-30 109-74 145-129Zm-3577 3c22 19 45 35 71 49-9 27-14 56-16 84-44-1-87-9-127-25 17-40 42-77 72-108Zm3316 0c31 31 55 68 72 108-40 16-83 24-127 25-2-28-7-57-16-84 26-14 50-30 71-49Zm-2825 0c30 31 55 68 72 108-40 16-84 24-127 25-2-28-8-57-16-84 25-14 49-30 71-49Zm922 0c21 19 45 35 70 49-8 27-13 56-15 84-44-1-87-9-127-25 17-40 41-77 72-108Zm491 0c30 31 55 68 72 108-41 16-84 24-128 25-2-28-7-57-15-84 25-14 49-30 71-49Zm921 0c22 19 46 35 71 49-8 27-13 56-16 84-43-1-86-9-127-25 17-40 42-77 72-108ZM1779 871c44 17 91 26 138 27 0 47 9 94 27 138-56 17-117 20-174 9-12-58-9-118 9-174Zm2071 0c18 56 21 116 9 174-57 11-118 8-174-9 18-44 27-91 27-138 47-1 94-10 138-27Zm-3484 0c44 17 91 26 138 27 1 47 10 94 27 138-56 17-117 20-174 9-12-58-9-118 9-174Zm659 0c17 56 20 116 9 174-58 11-118 8-174-9 17-44 26-91 27-138 47-1 94-10 138-27Zm1413 0c17 56 20 116 8 174-57 11-118 8-174-9 18-44 27-91 27-138 48-1 95-10 139-27Zm753 0c44 17 91 26 138 27 1 47 10 94 28 138-56 17-117 20-175 9-11-58-8-118 9-174Zm-1155 10c13 25 30 49 48 71-31 30-68 55-107 72-17-40-25-84-26-127 29-2 57-8 85-16Zm144 0c28 8 56 14 85 16-1 43-9 87-25 127-40-17-77-42-108-72 19-22 35-46 48-71Zm1413 0c28 8 56 14 85 16-1 43-10 87-26 127-40-17-76-42-107-72 18-22 35-46 48-71Zm-2970 0c13 25 30 49 49 71-32 30-68 55-108 72-16-40-25-84-25-127 28-2 56-8 84-16Zm145 0c27 8 55 14 84 16-1 43-9 87-25 127-40-17-77-42-108-72 19-22 35-46 49-71Zm2681 0c13 25 29 49 48 71-31 30-68 55-108 72-16-40-24-84-25-127 29-2 57-8 85-16Zm-2047 53c49 33 89 78 117 130-44 18-84 45-117 78-34-33-74-60-117-78 27-52 68-97 117-130Zm1412 0c49 33 90 78 117 130-43 18-83 45-117 78-33-33-73-60-116-78 27-52 68-97 116-130ZM695 977c34 33 74 60 117 78-27 52-68 97-117 130-49-33-89-78-117-130 44-18 84-45 117-78Zm1413 0c34 33 74 60 117 78-27 52-68 97-117 130-49-33-89-78-117-130 44-18 83-45 117-78Zm1413 0c34 33 73 60 117 78-28 52-68 97-117 130-49-33-90-78-117-130 43-18 83-45 117-78Zm-3259 90c22 1 44 3 65 7 12 58 9 119-9 175-44-18-91-27-138-28 0-47-9-94-27-138 35-11 72-16 109-16Zm866 0c37 0 74 5 109 16-17 44-26 91-27 138-47 1-94 10-138 28-17-56-20-117-9-175 22-4 44-6 65-7Zm547 0c22 1 44 3 65 7 12 58 8 119-9 175-44-18-91-27-138-28-1-47-10-94-27-138 35-11 72-16 109-16Zm866 0c37 0 74 5 109 16-17 44-26 91-27 138-47 1-94 10-138 28-17-56-20-117-9-175 22-4 43-6 65-7Zm547 0c22 1 43 3 65 7 11 58 8 119-9 175-44-18-91-27-138-28-1-47-10-94-27-138 35-11 72-16 109-16Zm866 0c37 0 74 5 109 16-17 44-27 91-27 138-47 1-94 10-138 28-18-56-21-117-9-175 21-4 43-6 65-7Zm-3408 1c29 58 74 109 129 145a276 276 0 0 1-179 179c-37-55-87-99-146-129 19-58 24-121 14-181 61 9 123 5 182-14Zm299 0c58 19 121 23 181 14-9 60-5 123 14 181-58 30-108 74-145 129a277 277 0 0 1-179-179c54-36 99-87 129-145Zm1113 0c30 58 75 109 130 145a276 276 0 0 1-180 179c-36-55-87-99-145-129 19-58 24-121 14-181 60 9 123 5 181-14Zm300 0c58 19 121 23 181 14-10 60-5 123 14 181-58 30-109 74-145 129a276 276 0 0 1-179-179c54-36 99-87 129-145Zm1113 0c30 58 75 109 129 145a276 276 0 0 1-179 179c-36-55-87-99-145-129 19-58 23-121 14-181 60 9 123 5 181-14Zm300 0c58 19 120 23 181 14-10 60-5 123 14 181-58 30-109 74-145 129a277 277 0 0 1-180-179c55-36 100-87 130-145Zm-3551 27c17 41 25 84 26 127-29 3-57 8-85 16-13-25-30-49-48-71 31-30 68-55 107-72Zm1150 0c40 17 77 42 108 72-19 22-35 46-49 71-27-8-55-13-84-16 1-43 9-86 25-127Zm263 0c16 41 25 84 25 127-28 3-57 8-84 16-14-25-30-49-49-71 32-30 68-55 108-72Zm1150 0c40 17 76 42 108 72-19 22-35 46-49 71-27-8-56-13-84-16 0-43 9-86 25-127Zm263 0c16 41 25 84 25 127-28 3-57 8-84 16-14-25-30-49-49-71 31-30 68-55 108-72Zm1150 0c40 17 76 42 107 72-18 22-35 46-48 71-28-8-56-13-85-16 1-43 10-86 26-127Zm-2694 109 47 66 9 6c4 2 7 2 11 2l80-13-12 80c-1 4 0 8 1 11 2 4 4 7 7 9l65 48-65 48-7 8v1c-1 3-2 6-1 10l12 80-80-12c-4-1-7 0-11 1l-9 7-47 65-48-65c-2-3-5-5-9-6v-1c-3-1-7-2-11-1l-80 12 13-80c0-4 0-7-2-11-1-3-3-6-6-8l-66-48 66-48c3-2 5-5 6-9 2-3 2-7 2-11l-13-80 80 13c4 0 8 0 11-2 4-1 7-3 9-6Zm1412 0 48 66c2 3 5 5 9 6 3 2 7 2 11 2l80-13-13 80c0 4 0 8 2 11 1 4 4 7 6 9l66 48-66 48-6 8v1c-2 3-2 6-2 10l13 80-80-12c-4-1-8 0-11 1v1c-4 1-7 3-9 6l-48 65-47-65c-2-3-6-5-9-6v-1c-4-1-7-2-11-1l-80 12 13-80-2-11c-1-3-4-6-7-8l-65-48 65-48c3-2 6-5 7-9l2-11-13-80 80 13a17 17 0 0 0 11-2c3-1 7-3 9-6Zm-2635 52c44 1 87 9 127 25-17 40-41 77-72 108-21-19-45-35-70-49 8-27 13-55 15-84Zm1032 0c2 29 8 57 16 84-25 14-49 30-71 49-30-31-55-68-72-108 40-16 84-24 127-25Zm381 0c44 1 87 9 127 25-17 40-42 77-72 108-22-19-45-35-71-49 9-27 14-55 16-84Zm1032 0c2 29 7 57 16 84-26 14-49 30-71 49-30-31-55-68-72-108 40-16 84-24 127-25Zm381 0c43 1 87 9 127 25-17 40-42 77-72 108-22-19-46-35-71-49 8-27 14-55 16-84Zm1032 0c2 29 7 57 16 84-26 14-50 30-71 49-31-31-55-68-72-108 40-16 83-24 127-25Zm-3342 0a310 310 0 0 0 157 157 310 310 0 0 0-157 156 310 310 0 0 0-157-156 310 310 0 0 0 157-157Zm1413 0a310 310 0 0 0 157 157 310 310 0 0 0-157 156 310 310 0 0 0-157-156 310 310 0 0 0 157-157Zm1413 0a310 310 0 0 0 157 157 310 310 0 0 0-157 156 310 310 0 0 0-157-156 310 310 0 0 0 157-157Zm-3183 40c52 27 97 68 129 117-32 49-77 89-129 117-19-44-46-83-78-117 32-34 59-74 78-117Zm715 0c18 43 45 83 78 117-33 34-60 73-78 117-52-28-97-68-130-117 33-49 78-90 130-117Zm698 0c52 27 97 68 129 117-32 49-77 89-129 117-19-44-46-83-79-117 33-34 60-74 79-117Zm714 0c19 43 46 83 79 117-33 34-60 73-79 117-52-28-97-68-129-117 32-49 77-90 129-117Zm699 0c51 27 96 68 129 117-33 49-78 89-129 117-19-44-46-83-79-117 33-34 60-74 79-117Zm714 0c19 43 46 83 78 117-32 34-59 73-78 117-52-28-97-68-129-117 32-49 77-90 129-117ZM496 1434a277 277 0 0 1 179 178c-55 37-100 87-129 146a389 389 0 0 0-182-14c10-61 5-123-14-182 59-29 109-74 146-128Zm399 0c37 54 87 99 145 128-19 59-23 121-14 182a388 388 0 0 0-181 14c-30-59-75-109-129-146a276 276 0 0 1 179-178Zm1013 0a277 277 0 0 1 180 178c-55 37-100 87-130 146a389 389 0 0 0-181-14c10-61 5-123-14-182 58-29 109-74 145-128Zm400 0c36 54 87 99 145 128-19 59-24 121-14 182a387 387 0 0 0-181 14c-30-59-75-109-130-146a276 276 0 0 1 180-178Zm1013 0a277 277 0 0 1 179 178c-54 37-99 87-129 146a389 389 0 0 0-181-14c9-61 5-123-14-182 58-29 109-74 145-128Zm400 0c36 54 86 99 145 128-19 59-24 121-14 182a387 387 0 0 0-181 14c-30-59-75-109-130-146a276 276 0 0 1 180-178Zm-3487 3c31 31 55 67 72 107-40 16-83 25-127 26-2-29-7-57-15-85 25-13 49-30 70-48Zm922 0c22 18 46 35 71 48-8 28-14 56-16 84-43 0-87-9-127-25 17-40 42-76 72-107Zm491 0c30 31 55 67 72 107-40 16-83 25-127 25-2-28-7-56-16-84 26-13 49-30 71-48Zm922 0c22 18 45 35 71 48-9 28-14 56-16 84-43 0-87-9-127-25 17-40 42-76 72-107Zm491 0c30 31 55 67 72 107-40 16-84 25-127 25-2-28-8-56-16-84 25-13 49-30 71-48Zm922 0c21 18 45 35 71 48-9 28-14 56-16 84-44 0-87-9-127-25 17-40 41-76 72-107Zm-2910 140c44 17 91 27 138 27 1 47 10 94 27 138-56 18-116 21-174 9-11-57-8-118 9-174Zm2072 0c17 56 20 117 9 174-58 12-118 9-174-9 17-44 26-91 27-138 47 0 94-10 138-27Zm-2826 0c18 56 21 117 9 174-57 12-118 9-174-9 18-44 27-91 27-138 47 0 94-10 138-27Zm1413 0c17 56 21 117 9 174-58 12-118 9-174-9 17-44 26-91 27-138 47 0 94-10 138-27Zm754 0c44 17 91 27 138 27 1 47 10 94 27 138-56 18-116 21-174 9-11-57-8-118 9-174Zm1413 0c44 17 91 27 138 27 0 47 10 94 27 138-56 18-117 21-174 9-12-57-9-118 9-174Zm-2569 10c14 26 30 49 49 71-31 30-68 55-108 72-16-40-24-83-25-127 29-2 57-7 84-16Zm1413 0c14 26 30 49 49 71-32 30-68 55-108 72-16-40-25-83-25-127 28-2 57-7 84-16Zm145 0c27 9 56 14 84 16 0 44-9 87-25 127-40-17-77-42-108-72 19-22 35-45 49-71Zm-2826 0c28 9 56 14 85 16-1 44-9 87-26 127-39-17-76-42-107-72 18-22 35-45 48-71Zm1413 0c27 9 56 14 84 16 0 44-9 87-25 127-40-17-76-42-108-72 19-22 35-45 49-71Zm2681 0c13 26 30 49 48 71-31 30-67 55-107 72-16-40-25-83-26-127 29-2 57-7 85-16Zm-3460 54c49 32 90 77 117 129-43 19-83 46-117 78-33-32-73-59-117-78 28-52 68-97 117-129Zm1413 0c49 32 90 77 117 129-43 19-83 46-117 78-34-32-73-59-117-78 28-52 68-97 117-129Zm1413 0c49 32 89 77 117 129-44 19-83 46-117 78-34-32-74-59-117-78 27-52 68-97 117-129Zm-707 42c34 33 74 60 117 79-27 52-68 97-117 129-48-32-89-77-116-129 43-19 83-46 116-79Zm-1412 0c33 33 73 60 117 79-28 52-68 97-117 129-49-32-90-77-117-129 43-19 83-46 117-79Zm-980 91c37-1 74 5 109 16-17 44-26 91-27 138-47 0-94 9-138 27-18-56-21-117-9-174 21-5 43-7 65-7Zm546 0c22 0 44 2 66 7 11 57 8 118-9 174-44-18-91-27-138-27-1-47-10-94-28-138 36-11 73-17 109-16Zm867 0c37-1 74 5 109 16-18 44-27 91-27 138-47 0-94 9-138 27-18-56-21-117-9-174 21-5 43-7 65-7Zm546 0c22 0 44 2 65 7 12 57 9 118-8 174-44-18-91-27-139-27 0-47-9-94-27-138 35-11 72-17 109-16Zm867 0c37-1 73 5 109 16-18 44-27 91-28 138-47 0-94 9-138 27-17-56-20-117-9-174 22-5 44-7 66-7Zm546 0c22 0 44 2 65 7 12 57 9 118-9 174-44-18-91-27-138-27 0-47-9-94-27-138 35-11 72-17 109-16Zm-2542 0c30 59 75 109 129 146a276 276 0 0 1-179 178c-37-54-87-99-145-129 19-58 23-121 14-181 60 10 123 5 181-14Zm1413 0c30 59 75 109 129 146a276 276 0 0 1-179 178c-37-54-87-99-146-129 19-58 24-121 14-181 61 10 123 5 182-14Zm1413 0c29 59 74 109 129 146a276 276 0 0 1-179 178c-37-54-87-99-146-129 19-58 24-121 14-181 61 10 123 5 182-14Zm-3939 0c58 19 121 24 181 14-10 60-5 123 14 181-58 30-109 75-145 129A277 277 0 0 1 9 1920c55-37 100-87 130-146Zm1412 0c59 19 121 24 182 14-10 60-5 123 14 181-59 30-109 75-146 129a276 276 0 0 1-179-178c55-37 99-87 129-146Zm1413 0c58 19 121 24 182 14-10 60-5 123 13 181-58 30-108 75-145 129a277 277 0 0 1-179-178c54-37 99-87 129-146Zm-2400 28c40 17 76 41 108 72-19 21-36 45-49 71-28-9-56-14-84-16 0-44 9-87 25-127Zm263 0c16 40 24 83 25 127-29 2-57 7-84 16-14-26-30-50-49-71 31-31 68-55 108-72Zm1150 0c39 17 76 41 107 72-18 21-35 45-48 71-28-9-56-14-85-16 1-44 9-87 26-127Zm263 0c16 40 24 83 25 127-29 2-57 7-85 16-13-26-29-50-48-71 31-31 68-55 108-72Zm1149 0c40 17 77 41 108 72-19 21-35 45-48 71-28-9-56-14-85-16 1-44 9-87 25-127Zm263 0c16 40 25 83 26 127-29 2-57 7-85 16-13-26-30-50-48-71 31-31 67-55 107-72ZM695 1911l48 65c2 3 5 5 9 6 3 2 7 3 11 2l80-12-13 80c0 3 0 7 2 10v1c1 3 3 6 6 8l66 48-66 48c-3 2-5 5-6 9-2 3-2 7-2 10l13 81-80-13c-4-1-8 0-11 2-4 1-7 3-9 6l-48 66-47-66-9-6c-4-2-7-3-11-2l-80 13 12-81c1-3 0-7-1-10-1-4-4-7-7-9l-65-48 65-48 7-8c1-4 2-8 1-11l-12-80 80 12c4 1 7 0 11-2l9-6Zm1413 0 48 65a17 17 0 0 0 9 6c3 2 7 3 10 2l80-12-12 80c-1 3 0 7 2 10v1c1 3 3 6 6 8l66 48-66 48c-3 2-5 5-6 9-2 3-3 7-2 10l12 81-80-13c-3-1-7 0-10 2-4 1-7 3-9 6l-48 66-48-66c-2-3-5-5-8-6h-1c-3-2-7-3-10-2l-80 13 12-81c1-3 0-7-2-10-1-4-3-7-6-9l-65-48 65-48c3-2 5-5 6-8 2-4 3-8 2-11l-12-80 80 12a17 17 0 0 0 11-2c3-1 6-3 8-6Zm1413 0 48 65c2 3 5 5 8 6h1c3 2 7 3 10 2l80-12-12 80c-1 3 0 7 1 10h1v1c1 3 3 6 6 8l65 48-65 48c-3 2-5 5-6 9h-1c-1 3-2 7-1 10l12 81-80-13c-3-1-7 0-10 2h-1c-3 1-6 3-8 6l-48 66-48-66c-2-3-5-5-9-6-3-2-7-3-11-2l-80 13 13-81c0-3 0-7-2-10-1-4-3-7-6-9l-66-48 66-48c3-2 5-5 6-8 2-4 2-8 2-11l-13-80 80 12c4 1 8 0 11-2 4-1 7-3 9-6Zm-3016 51c2 29 7 57 16 85-26 13-49 30-71 48-30-31-55-68-72-107 40-17 83-25 127-26Zm381 0c43 1 87 9 127 26-17 39-42 76-72 107-22-18-46-35-71-48 8-28 14-56 16-85Zm1032 0c2 29 7 57 15 85-25 13-49 30-70 48-31-31-55-68-72-107 40-17 83-25 127-26Zm380 0c44 1 87 9 128 26-17 39-42 76-72 107-22-18-46-35-71-48 8-28 13-56 15-85Zm1032 0c3 29 8 57 16 85-25 13-49 30-71 48-30-31-55-68-72-107 41-17 84-25 127-26Zm381 0c44 1 87 9 127 26-17 39-41 76-72 107-21-18-45-35-71-48 9-28 14-56 16-85Zm-2309 1a310 310 0 0 0 157 156 310 310 0 0 0-157 157 309 309 0 0 0-157-157 310 310 0 0 0 157-156Zm1412 0a310 310 0 0 0 158 156 310 310 0 0 0-158 157 310 310 0 0 0-157-157 310 310 0 0 0 157-156Zm-2468 39c19 44 46 83 79 117-33 34-60 74-79 117-52-27-97-68-129-117 32-49 77-89 129-117Zm698 0c52 28 97 68 130 117-33 49-78 90-130 117-18-43-45-83-78-117 33-34 60-73 78-117Zm715 0c19 44 45 83 78 117-33 34-59 74-78 117-52-27-97-68-129-117 32-49 77-89 129-117Zm698 0c52 28 97 68 130 117-33 49-78 90-130 117-19-43-45-83-78-117 33-34 59-73 78-117Zm715 0c18 44 45 83 78 117-33 34-60 74-78 117-52-27-97-68-130-117 33-49 78-89 130-117Zm698 0c52 28 97 68 129 117-32 49-77 90-129 117-19-43-46-83-78-117 32-34 59-73 78-117Zm-2668 138a277 277 0 0 1 179 178c-54 37-99 88-129 146a389 389 0 0 0-181-14c9-60 5-123-14-181 58-30 108-75 145-129Zm-1013 0c36 54 87 99 145 129-19 58-24 121-14 181a387 387 0 0 0-181 14c-30-58-75-109-130-146a276 276 0 0 1 180-178Zm1412 0c37 54 87 99 146 129-19 58-24 121-14 181a387 387 0 0 0-182 14c-29-58-74-109-129-146a276 276 0 0 1 179-178Zm1014 0a277 277 0 0 1 179 178c-55 37-99 88-129 146a389 389 0 0 0-182-14c10-60 5-123-14-181 59-30 109-75 146-129Zm399 0c37 54 87 99 145 129-18 58-23 121-13 181a387 387 0 0 0-182 14c-30-58-75-109-129-146a276 276 0 0 1 179-178Zm1013 0a277 277 0 0 1 180 178c-55 37-100 88-130 146a389 389 0 0 0-181-14c10-60 5-123-14-181 59-30 109-75 145-129Zm-3577 3c22 19 45 35 71 48-9 28-14 56-16 85-44-1-87-9-127-25 17-40 42-77 72-108Zm491 0c30 31 55 68 72 108-40 16-84 24-127 25-2-29-8-57-16-85 25-13 49-29 71-48Zm922 0c21 19 45 35 70 48-8 28-13 56-15 85-44-1-87-9-127-25 17-40 41-77 72-108Zm1903 0c31 31 55 68 72 108-40 16-83 24-127 25-2-29-7-57-16-85 26-13 50-29 71-48Zm-1412 0c30 31 55 68 72 108-41 16-84 24-128 25-2-29-7-57-15-85 25-13 49-29 71-48Zm921 0c22 19 46 35 71 48-8 28-13 56-16 85-43-1-86-9-127-25 17-40 42-77 72-108Zm-1496 140c44 18 91 27 138 28 0 47 9 94 27 138-56 17-117 20-174 8-12-57-9-118 9-174Zm2071 0c18 56 21 117 9 174-57 12-118 9-174-8 18-44 27-91 27-138 47-1 94-10 138-28Zm-3484 0c44 18 91 27 138 28 1 47 10 94 27 138-56 17-117 20-174 8-12-57-9-118 9-174Zm659 0c17 56 20 117 9 174-58 12-118 9-174-8 17-44 26-91 27-138 47-1 94-10 138-28Zm1413 0c17 56 20 117 8 174-57 12-118 9-174-8 18-44 27-91 27-138 48-1 95-10 139-28Zm753 0c44 18 91 27 138 28 1 47 10 94 28 138-56 17-117 20-175 8-11-57-8-118 9-174Zm-1155 11c13 25 30 49 48 71-31 30-68 55-107 72-17-41-25-84-26-128 29-2 57-7 85-15Zm1557 0c28 8 56 13 85 15-1 44-10 87-26 128-40-17-76-42-107-72 18-22 35-46 48-71Zm-2970 0c13 25 30 49 49 71-32 30-68 55-108 72-16-41-25-84-25-128 28-2 56-7 84-15Zm1557 0c28 8 56 13 85 15-1 44-9 87-25 128-40-17-77-42-108-72 19-22 35-46 48-71Zm1269 0c13 25 29 49 48 71-31 30-68 55-108 72-16-41-24-84-25-128 29-2 57-7 85-15Zm-2681 0c27 8 55 13 84 15-1 44-9 87-25 128-40-17-77-42-108-72 19-22 35-46 49-71Zm634 53c49 33 89 77 117 129-44 19-84 46-117 79-34-33-74-60-117-79 27-52 68-96 117-129Zm1412 0c49 33 90 77 117 129-43 19-83 46-117 79-33-33-73-60-116-79 27-52 68-96 116-129Zm-706 43c34 33 74 59 117 78-27 52-68 97-117 130-49-33-89-78-117-130 44-19 83-45 117-78Zm1413 0c34 33 73 59 117 78-28 52-68 97-117 130-49-33-90-78-117-130 43-19 83-45 117-78Zm-2826 0c34 33 74 59 117 78-27 52-68 97-117 130-49-33-89-78-117-130 44-19 84-45 117-78Zm0 0"/>
</svg>
